<mxfile host="app.diagrams.net" modified="2021-01-02T05:35:04.838Z" agent="5.0 (Windows NT 10.0; Win64; x64) AppleWebKit/537.36 (KHTML, like Gecko) Chrome/87.0.4280.88 Safari/537.36" etag="EIX2_jwsXpWc4pDQbsi_" version="14.1.7" type="github">
  <diagram id="xz9hWu4p7vhWP1J7kX0y" name="Page-1">
    <mxGraphModel dx="2062" dy="1132" grid="1" gridSize="10" guides="1" tooltips="1" connect="1" arrows="1" fold="1" page="1" pageScale="1" pageWidth="827" pageHeight="1169" math="0" shadow="0">
      <root>
        <mxCell id="0" />
        <mxCell id="1" parent="0" />
        <mxCell id="s-Bh8lu4hKgLgVafhUbF-5" value="" style="shape=hexagon;perimeter=hexagonPerimeter2;whiteSpace=wrap;html=1;fixedSize=1;size=100;aspect=fixed;rotation=0;fillColor=#b1ddf0;strokeColor=#10739e;" vertex="1" parent="1">
          <mxGeometry x="240" y="150" width="445" height="445" as="geometry" />
        </mxCell>
        <mxCell id="s-Bh8lu4hKgLgVafhUbF-6" value="" style="shape=hexagon;perimeter=hexagonPerimeter2;whiteSpace=wrap;html=1;fixedSize=1;size=47.5;aspect=fixed;rotation=0;fillColor=#b0e3e6;strokeColor=#0e8088;" vertex="1" parent="1">
          <mxGeometry x="352.5" y="262.5" width="220" height="220" as="geometry" />
        </mxCell>
        <mxCell id="s-Bh8lu4hKgLgVafhUbF-9" style="edgeStyle=orthogonalEdgeStyle;rounded=0;orthogonalLoop=1;jettySize=auto;html=1;" edge="1" parent="1" source="s-Bh8lu4hKgLgVafhUbF-7" target="s-Bh8lu4hKgLgVafhUbF-8">
          <mxGeometry relative="1" as="geometry" />
        </mxCell>
        <mxCell id="s-Bh8lu4hKgLgVafhUbF-7" value="API" style="rounded=1;whiteSpace=wrap;html=1;" vertex="1" parent="1">
          <mxGeometry x="30" y="342.5" width="120" height="60" as="geometry" />
        </mxCell>
        <mxCell id="s-Bh8lu4hKgLgVafhUbF-11" style="edgeStyle=orthogonalEdgeStyle;rounded=0;orthogonalLoop=1;jettySize=auto;html=1;" edge="1" parent="1" source="s-Bh8lu4hKgLgVafhUbF-8" target="s-Bh8lu4hKgLgVafhUbF-10">
          <mxGeometry relative="1" as="geometry" />
        </mxCell>
        <mxCell id="s-Bh8lu4hKgLgVafhUbF-8" value="" style="ellipse;whiteSpace=wrap;html=1;aspect=fixed;fillColor=#fad9d5;strokeColor=#ae4132;" vertex="1" parent="1">
          <mxGeometry x="220" y="352.5" width="40" height="40" as="geometry" />
        </mxCell>
        <mxCell id="s-Bh8lu4hKgLgVafhUbF-10" value="" style="ellipse;whiteSpace=wrap;html=1;aspect=fixed;fillColor=#fad7ac;strokeColor=#b46504;" vertex="1" parent="1">
          <mxGeometry x="340" y="352.5" width="40" height="40" as="geometry" />
        </mxCell>
        <mxCell id="s-Bh8lu4hKgLgVafhUbF-13" value="" style="ellipse;whiteSpace=wrap;html=1;aspect=fixed;fillColor=#fad7ac;strokeColor=#b46504;" vertex="1" parent="1">
          <mxGeometry x="50" y="670" width="40" height="40" as="geometry" />
        </mxCell>
        <mxCell id="s-Bh8lu4hKgLgVafhUbF-14" value="" style="ellipse;whiteSpace=wrap;html=1;aspect=fixed;fillColor=#fad9d5;strokeColor=#ae4132;" vertex="1" parent="1">
          <mxGeometry x="50" y="600" width="40" height="40" as="geometry" />
        </mxCell>
        <mxCell id="s-Bh8lu4hKgLgVafhUbF-15" value="Adapter" style="text;html=1;strokeColor=none;fillColor=none;align=center;verticalAlign=middle;whiteSpace=wrap;rounded=0;" vertex="1" parent="1">
          <mxGeometry x="110" y="610" width="40" height="20" as="geometry" />
        </mxCell>
        <mxCell id="s-Bh8lu4hKgLgVafhUbF-16" value="Port" style="text;html=1;strokeColor=none;fillColor=none;align=center;verticalAlign=middle;whiteSpace=wrap;rounded=0;" vertex="1" parent="1">
          <mxGeometry x="110" y="680" width="40" height="20" as="geometry" />
        </mxCell>
        <mxCell id="s-Bh8lu4hKgLgVafhUbF-17" value="" style="ellipse;whiteSpace=wrap;html=1;aspect=fixed;fillColor=#cdeb8b;strokeColor=#36393d;" vertex="1" parent="1">
          <mxGeometry x="408.75" y="318.75" width="107.5" height="107.5" as="geometry" />
        </mxCell>
        <mxCell id="s-Bh8lu4hKgLgVafhUbF-19" value="" style="ellipse;whiteSpace=wrap;html=1;aspect=fixed;fillColor=#cdeb8b;strokeColor=#36393d;" vertex="1" parent="1">
          <mxGeometry x="50" y="750" width="40" height="40" as="geometry" />
        </mxCell>
        <mxCell id="s-Bh8lu4hKgLgVafhUbF-20" value="Domain" style="text;html=1;strokeColor=none;fillColor=none;align=center;verticalAlign=middle;whiteSpace=wrap;rounded=0;" vertex="1" parent="1">
          <mxGeometry x="110" y="760" width="40" height="20" as="geometry" />
        </mxCell>
        <mxCell id="s-Bh8lu4hKgLgVafhUbF-23" style="edgeStyle=orthogonalEdgeStyle;rounded=0;orthogonalLoop=1;jettySize=auto;html=1;" edge="1" parent="1" source="s-Bh8lu4hKgLgVafhUbF-21" target="s-Bh8lu4hKgLgVafhUbF-22">
          <mxGeometry relative="1" as="geometry" />
        </mxCell>
        <mxCell id="s-Bh8lu4hKgLgVafhUbF-21" value="" style="ellipse;whiteSpace=wrap;html=1;aspect=fixed;fillColor=#fad9d5;strokeColor=#ae4132;" vertex="1" parent="1">
          <mxGeometry x="660" y="350" width="40" height="40" as="geometry" />
        </mxCell>
        <mxCell id="s-Bh8lu4hKgLgVafhUbF-22" value="Postgres" style="rounded=1;whiteSpace=wrap;html=1;" vertex="1" parent="1">
          <mxGeometry x="760" y="340" width="120" height="60" as="geometry" />
        </mxCell>
        <mxCell id="s-Bh8lu4hKgLgVafhUbF-25" style="edgeStyle=orthogonalEdgeStyle;rounded=0;orthogonalLoop=1;jettySize=auto;html=1;entryX=0;entryY=0.5;entryDx=0;entryDy=0;" edge="1" parent="1" source="s-Bh8lu4hKgLgVafhUbF-24" target="s-Bh8lu4hKgLgVafhUbF-21">
          <mxGeometry relative="1" as="geometry" />
        </mxCell>
        <mxCell id="s-Bh8lu4hKgLgVafhUbF-24" value="" style="ellipse;whiteSpace=wrap;html=1;aspect=fixed;fillColor=#fad7ac;strokeColor=#b46504;" vertex="1" parent="1">
          <mxGeometry x="550" y="350" width="40" height="40" as="geometry" />
        </mxCell>
        <mxCell id="s-Bh8lu4hKgLgVafhUbF-26" value="Restful API" style="text;html=1;strokeColor=none;fillColor=none;align=center;verticalAlign=middle;whiteSpace=wrap;rounded=0;" vertex="1" parent="1">
          <mxGeometry x="220" y="406.25" width="40" height="20" as="geometry" />
        </mxCell>
        <mxCell id="s-Bh8lu4hKgLgVafhUbF-27" value="Postgres Adapter" style="text;html=1;strokeColor=none;fillColor=none;align=center;verticalAlign=middle;whiteSpace=wrap;rounded=0;" vertex="1" parent="1">
          <mxGeometry x="660" y="400" width="40" height="20" as="geometry" />
        </mxCell>
        <mxCell id="s-Bh8lu4hKgLgVafhUbF-29" value="" style="shape=image;html=1;verticalAlign=top;verticalLabelPosition=bottom;labelBackgroundColor=#ffffff;imageAspect=0;aspect=fixed;image=https://cdn4.iconfinder.com/data/icons/48-bubbles/48/07.Wallet-128.png" vertex="1" parent="1">
          <mxGeometry x="469" y="357.5" width="30" height="30" as="geometry" />
        </mxCell>
        <mxCell id="s-Bh8lu4hKgLgVafhUbF-30" value="" style="outlineConnect=0;fontColor=#232F3E;gradientColor=none;fillColor=#232F3E;strokeColor=none;dashed=0;verticalLabelPosition=bottom;verticalAlign=top;align=center;html=1;fontSize=12;fontStyle=0;aspect=fixed;pointerEvents=1;shape=mxgraph.aws4.user;" vertex="1" parent="1">
          <mxGeometry x="423" y="350" width="46" height="46" as="geometry" />
        </mxCell>
        <mxCell id="s-Bh8lu4hKgLgVafhUbF-31" value="Wallet Service" style="text;html=1;strokeColor=none;fillColor=none;align=center;verticalAlign=middle;whiteSpace=wrap;rounded=0;" vertex="1" parent="1">
          <mxGeometry x="340" y="406.25" width="40" height="20" as="geometry" />
        </mxCell>
        <mxCell id="s-Bh8lu4hKgLgVafhUbF-32" value="API -&amp;gt; Service -&amp;gt; Repository / domain&amp;nbsp;" style="text;html=1;strokeColor=none;fillColor=none;align=center;verticalAlign=middle;whiteSpace=wrap;rounded=0;" vertex="1" parent="1">
          <mxGeometry x="160" y="690" width="870" height="20" as="geometry" />
        </mxCell>
        <mxCell id="s-Bh8lu4hKgLgVafhUbF-51" style="edgeStyle=orthogonalEdgeStyle;rounded=0;orthogonalLoop=1;jettySize=auto;html=1;entryX=0;entryY=0.5;entryDx=0;entryDy=0;fontSize=9;" edge="1" parent="1" source="s-Bh8lu4hKgLgVafhUbF-33" target="s-Bh8lu4hKgLgVafhUbF-39">
          <mxGeometry relative="1" as="geometry" />
        </mxCell>
        <mxCell id="s-Bh8lu4hKgLgVafhUbF-33" value="API" style="rounded=0;whiteSpace=wrap;html=1;" vertex="1" parent="1">
          <mxGeometry x="100" y="900" width="120" height="60" as="geometry" />
        </mxCell>
        <mxCell id="s-Bh8lu4hKgLgVafhUbF-53" style="edgeStyle=orthogonalEdgeStyle;rounded=0;orthogonalLoop=1;jettySize=auto;html=1;fontSize=9;" edge="1" parent="1" source="s-Bh8lu4hKgLgVafhUbF-34" target="s-Bh8lu4hKgLgVafhUbF-35">
          <mxGeometry relative="1" as="geometry" />
        </mxCell>
        <mxCell id="s-Bh8lu4hKgLgVafhUbF-54" style="edgeStyle=orthogonalEdgeStyle;rounded=0;orthogonalLoop=1;jettySize=auto;html=1;entryX=0;entryY=0.5;entryDx=0;entryDy=0;fontSize=9;curved=1;" edge="1" parent="1" source="s-Bh8lu4hKgLgVafhUbF-34" target="s-Bh8lu4hKgLgVafhUbF-38">
          <mxGeometry relative="1" as="geometry">
            <Array as="points">
              <mxPoint x="620" y="930" />
              <mxPoint x="620" y="1020" />
            </Array>
          </mxGeometry>
        </mxCell>
        <mxCell id="s-Bh8lu4hKgLgVafhUbF-63" style="edgeStyle=orthogonalEdgeStyle;curved=1;rounded=0;orthogonalLoop=1;jettySize=auto;html=1;entryX=0;entryY=0.5;entryDx=0;entryDy=0;endArrow=classic;endFill=1;fontSize=9;" edge="1" parent="1" source="s-Bh8lu4hKgLgVafhUbF-34" target="s-Bh8lu4hKgLgVafhUbF-62">
          <mxGeometry relative="1" as="geometry" />
        </mxCell>
        <mxCell id="s-Bh8lu4hKgLgVafhUbF-34" value="Service" style="rounded=0;whiteSpace=wrap;html=1;fillColor=#ffcc99;strokeColor=#36393d;" vertex="1" parent="1">
          <mxGeometry x="464.38" y="900" width="120" height="60" as="geometry" />
        </mxCell>
        <mxCell id="s-Bh8lu4hKgLgVafhUbF-58" value="" style="edgeStyle=orthogonalEdgeStyle;curved=1;rounded=0;orthogonalLoop=1;jettySize=auto;html=1;endArrow=none;endFill=0;fontSize=9;" edge="1" parent="1" source="s-Bh8lu4hKgLgVafhUbF-35" target="s-Bh8lu4hKgLgVafhUbF-38">
          <mxGeometry relative="1" as="geometry" />
        </mxCell>
        <mxCell id="s-Bh8lu4hKgLgVafhUbF-59" value="" style="edgeStyle=orthogonalEdgeStyle;curved=1;rounded=0;orthogonalLoop=1;jettySize=auto;html=1;endArrow=classic;endFill=1;fontSize=9;dashed=1;" edge="1" parent="1" source="s-Bh8lu4hKgLgVafhUbF-35" target="s-Bh8lu4hKgLgVafhUbF-37">
          <mxGeometry relative="1" as="geometry" />
        </mxCell>
        <mxCell id="s-Bh8lu4hKgLgVafhUbF-35" value="Repository" style="rounded=0;whiteSpace=wrap;html=1;fillColor=#cdeb8b;strokeColor=#36393d;" vertex="1" parent="1">
          <mxGeometry x="674.63" y="900" width="120" height="60" as="geometry" />
        </mxCell>
        <mxCell id="s-Bh8lu4hKgLgVafhUbF-36" value="Postgres" style="rounded=0;whiteSpace=wrap;html=1;" vertex="1" parent="1">
          <mxGeometry x="1055.63" y="900" width="120" height="60" as="geometry" />
        </mxCell>
        <mxCell id="s-Bh8lu4hKgLgVafhUbF-60" style="edgeStyle=orthogonalEdgeStyle;curved=1;rounded=0;orthogonalLoop=1;jettySize=auto;html=1;endArrow=classic;endFill=1;fontSize=9;" edge="1" parent="1" source="s-Bh8lu4hKgLgVafhUbF-37" target="s-Bh8lu4hKgLgVafhUbF-36">
          <mxGeometry relative="1" as="geometry" />
        </mxCell>
        <mxCell id="s-Bh8lu4hKgLgVafhUbF-37" value="Postgres Adapter" style="rounded=0;whiteSpace=wrap;html=1;fillColor=#ffcccc;strokeColor=#36393d;" vertex="1" parent="1">
          <mxGeometry x="860.63" y="900" width="120" height="60" as="geometry" />
        </mxCell>
        <mxCell id="s-Bh8lu4hKgLgVafhUbF-38" value="Domain" style="rounded=0;whiteSpace=wrap;html=1;fillColor=#cdeb8b;strokeColor=#36393d;" vertex="1" parent="1">
          <mxGeometry x="674.63" y="990" width="120" height="60" as="geometry" />
        </mxCell>
        <mxCell id="s-Bh8lu4hKgLgVafhUbF-52" style="edgeStyle=orthogonalEdgeStyle;rounded=0;orthogonalLoop=1;jettySize=auto;html=1;fontSize=9;" edge="1" parent="1" source="s-Bh8lu4hKgLgVafhUbF-39">
          <mxGeometry relative="1" as="geometry">
            <mxPoint x="460" y="930" as="targetPoint" />
          </mxGeometry>
        </mxCell>
        <mxCell id="s-Bh8lu4hKgLgVafhUbF-39" value="Handler" style="rounded=0;whiteSpace=wrap;html=1;fillColor=#ffcccc;strokeColor=#36393d;" vertex="1" parent="1">
          <mxGeometry x="280" y="900" width="120" height="60" as="geometry" />
        </mxCell>
        <mxCell id="s-Bh8lu4hKgLgVafhUbF-44" value=".../v1/products" style="shape=note;size=20;whiteSpace=wrap;html=1;fillColor=#ffff88;strokeColor=#36393d;fontSize=9;" vertex="1" parent="1">
          <mxGeometry x="100" y="1000" width="120" height="50" as="geometry" />
        </mxCell>
        <mxCell id="s-Bh8lu4hKgLgVafhUbF-45" value="&lt;b&gt;Product Management&lt;/b&gt;&lt;br&gt;adapters/api" style="shape=note;size=20;whiteSpace=wrap;html=1;fillColor=#ffff88;strokeColor=#36393d;fontSize=9;" vertex="1" parent="1">
          <mxGeometry x="280" y="1000" width="120" height="50" as="geometry" />
        </mxCell>
        <mxCell id="s-Bh8lu4hKgLgVafhUbF-46" value="&lt;b&gt;Product Management&lt;/b&gt;&lt;br&gt;domain/ports" style="shape=note;size=20;whiteSpace=wrap;html=1;fillColor=#ffff88;strokeColor=#36393d;fontSize=9;" vertex="1" parent="1">
          <mxGeometry x="464.38" y="1000" width="120" height="50" as="geometry" />
        </mxCell>
        <mxCell id="s-Bh8lu4hKgLgVafhUbF-48" value="&lt;b&gt;Product Management&lt;/b&gt;&lt;br&gt;domain/ports&lt;br&gt;&lt;br&gt;Type: Interface" style="shape=note;size=20;whiteSpace=wrap;html=1;fillColor=#ffff88;strokeColor=#36393d;fontSize=9;" vertex="1" parent="1">
          <mxGeometry x="674.63" y="830" width="120" height="50" as="geometry" />
        </mxCell>
        <mxCell id="s-Bh8lu4hKgLgVafhUbF-49" value="&lt;b&gt;Product Management&lt;/b&gt;&lt;br&gt;adapters/productdb/&lt;br&gt;DbProductRepo&lt;br&gt;&lt;br&gt;&lt;font color=&quot;#ff0000&quot;&gt;Implements Repository&lt;/font&gt;" style="shape=note;size=20;whiteSpace=wrap;html=1;fillColor=#ffff88;strokeColor=#36393d;fontSize=9;" vertex="1" parent="1">
          <mxGeometry x="860.63" y="830" width="120" height="50" as="geometry" />
        </mxCell>
        <mxCell id="s-Bh8lu4hKgLgVafhUbF-50" value="Separate 3rdParty adapters by placing them in a external folder?" style="shape=note;strokeWidth=2;fontSize=14;size=20;whiteSpace=wrap;html=1;fillColor=#fff2cc;strokeColor=#d6b656;fontColor=#666600;" vertex="1" parent="1">
          <mxGeometry x="564.63" y="1150" width="110.00000000000001" height="80" as="geometry" />
        </mxCell>
        <mxCell id="s-Bh8lu4hKgLgVafhUbF-64" style="edgeStyle=orthogonalEdgeStyle;curved=1;rounded=0;orthogonalLoop=1;jettySize=auto;html=1;entryX=0.5;entryY=1;entryDx=0;entryDy=0;endArrow=none;endFill=0;fontSize=9;" edge="1" parent="1" source="s-Bh8lu4hKgLgVafhUbF-62" target="s-Bh8lu4hKgLgVafhUbF-38">
          <mxGeometry relative="1" as="geometry" />
        </mxCell>
        <mxCell id="s-Bh8lu4hKgLgVafhUbF-71" style="edgeStyle=orthogonalEdgeStyle;curved=1;rounded=0;orthogonalLoop=1;jettySize=auto;html=1;entryX=0;entryY=0.5;entryDx=0;entryDy=0;endArrow=classic;endFill=1;fontSize=9;dashed=1;" edge="1" parent="1" source="s-Bh8lu4hKgLgVafhUbF-62" target="s-Bh8lu4hKgLgVafhUbF-68">
          <mxGeometry relative="1" as="geometry" />
        </mxCell>
        <mxCell id="s-Bh8lu4hKgLgVafhUbF-62" value="Repository&lt;br&gt;(External for External Product Metadate)" style="rounded=0;whiteSpace=wrap;html=1;fillColor=#cdeb8b;strokeColor=#36393d;dashed=1;" vertex="1" parent="1">
          <mxGeometry x="674.63" y="1080" width="120" height="60" as="geometry" />
        </mxCell>
        <mxCell id="s-Bh8lu4hKgLgVafhUbF-47" value="&lt;b&gt;Product Management&lt;/b&gt;&lt;br&gt;domain/model" style="shape=note;size=20;whiteSpace=wrap;html=1;fillColor=#ffff88;strokeColor=#36393d;fontSize=9;" vertex="1" parent="1">
          <mxGeometry x="820" y="995" width="120" height="50" as="geometry" />
        </mxCell>
        <mxCell id="s-Bh8lu4hKgLgVafhUbF-66" value="&lt;b&gt;Product Management&lt;/b&gt;&lt;br&gt;domain/ports&lt;br&gt;&lt;br&gt;Type: Interface" style="shape=note;size=20;whiteSpace=wrap;html=1;fillColor=#ffff88;strokeColor=#36393d;fontSize=9;" vertex="1" parent="1">
          <mxGeometry x="674.63" y="1160" width="120" height="50" as="geometry" />
        </mxCell>
        <mxCell id="s-Bh8lu4hKgLgVafhUbF-72" value="" style="edgeStyle=orthogonalEdgeStyle;curved=1;rounded=0;orthogonalLoop=1;jettySize=auto;html=1;endArrow=classic;endFill=1;fontSize=9;" edge="1" parent="1" source="s-Bh8lu4hKgLgVafhUbF-68" target="s-Bh8lu4hKgLgVafhUbF-70">
          <mxGeometry relative="1" as="geometry" />
        </mxCell>
        <mxCell id="s-Bh8lu4hKgLgVafhUbF-68" value="External Integration to XYZ associates" style="rounded=0;whiteSpace=wrap;html=1;fillColor=#ffcccc;strokeColor=#36393d;" vertex="1" parent="1">
          <mxGeometry x="860.63" y="1080" width="120" height="60" as="geometry" />
        </mxCell>
        <mxCell id="s-Bh8lu4hKgLgVafhUbF-69" value="&lt;b&gt;Product Management&lt;/b&gt;&lt;br&gt;adapters/external/authorsservice/&lt;br&gt;ExternalServriceClientProdctRepository&lt;br&gt;&lt;br&gt;&lt;font color=&quot;#ff0000&quot;&gt;Implements Repository&lt;/font&gt;" style="shape=note;size=20;whiteSpace=wrap;html=1;fillColor=#ffff88;strokeColor=#36393d;fontSize=9;" vertex="1" parent="1">
          <mxGeometry x="850" y="1160" width="120" height="50" as="geometry" />
        </mxCell>
        <mxCell id="s-Bh8lu4hKgLgVafhUbF-70" value="ACME Products" style="rounded=0;whiteSpace=wrap;html=1;" vertex="1" parent="1">
          <mxGeometry x="1055.63" y="1080" width="120" height="60" as="geometry" />
        </mxCell>
        <mxCell id="s-Bh8lu4hKgLgVafhUbF-75" value="Support Multiple domains in one project, then export into separate services.&lt;br&gt;&lt;br&gt;Each has their own adapters, adapters or things which are reused in other projects should be made into a library. Each project should generate their own client.&lt;br&gt;&lt;br&gt;Infrastructure in each project as it needs, it, likewise if common make it a lib or place in common&lt;br&gt;&lt;br&gt;libs, should be specific and not generalised." style="shape=note;strokeWidth=2;fontSize=14;size=20;whiteSpace=wrap;html=1;fillColor=#fff2cc;strokeColor=#d6b656;fontColor=#666600;" vertex="1" parent="1">
          <mxGeometry x="1150" y="500" width="350" height="220" as="geometry" />
        </mxCell>
        <mxCell id="s-Bh8lu4hKgLgVafhUbF-77" value="" style="shape=image;verticalLabelPosition=bottom;labelBackgroundColor=#ffffff;verticalAlign=top;aspect=fixed;imageAspect=0;image=data:image/png,iVBORw0KGgoAAAANSUhEUgAAASAAAAE0CAYAAACMxO4NAAAgAElEQVR4Ae2dbZqzrBKEzwLe2c2zl+wkG8lKZh/ZU87VYGnRNmgyMWKsH3OZyKdQfdsQYP7333//PfSnNpAGpIE9NPC/PQpVmRK7NCANmAYEIHmA8oClgd00MAPQz8+/x/X3/rjfp7/b5Wes4L/r7+P3+u9hV8Sx7/xG+7ncxjCL48M5rj7rTSgNnFcDMwAlsNwuBVBYICN4fq+Pfz8/j59/18fv/fdx/ZchleEzfee0+nxeoanv1feRBv4HL+Z+vz0uPz+DZ5M/RwkSgAb4WPjPz+VxIwBdbvJ4onbTPRmgNDDXwMwDskYavRwbhjlvqOUhYfjGQzY1+rzR1SZqE2kgayAEEBoHQGEIrQGQ5nxkYNCQrtJCSwNNAFlCDxz/3WeewofhnA/Td4lRGpAGWAMFgEaPh34Bu9N8jyVcAtAYh/KQRyTRsej0WXqABgoA4aauEog0IA18QgMCkBahVZdcfEKAKuPcoBOABCABSBrYTQNVANlcj+Zuzv12knei/t9aAwKQ3n67vf22Frfy7x+gApAAJABJA7tpoCsAYRnA0kpqxPNLBPTG6/+Npz5SH7EGBCC9/XZ7+7EQ9fmcYDokgCTWc4pV/f59/d4pgPhMovJoj7zVYziryG2UxdDsdrEd+jjPqEwvEX+fiNWnx+3TLgFkR4RgHiifLzQ/HiTaEgIA3el4kCieBHtcwarvvqvvmgCazgqCN7Hl1SCTPR/Ax8TmzxuCACOwAEBFejud0e1nQx66fpeY1Z/H688mgD69EDEEiDvwDCITgI4nNvSdruo7aEAA0q9g+hVMGthNA90DyI545QPRQE55QHqLQgu6HlcLXQKomHuiX7owRCvC6dhYhGsO6LiCFEzO1XddAUjiO5f41N/qbwFI4//dxv8CkAAkAAlAApA0sJsGugWQTTJ/ehmA3sh6I0sDn9WAAKS3325vPxn7Z429x/YWgAQgAUga2E0DAtDG4kt72bQVZDeB9/jWV50mz08AEoAEh401IOBMwPFtIQBtLD55QHXxeTHq+/naSgAKAJSPAJl2/uPXuHT/dn1cf3PYdO5QeeZQ2j4ynkd01278oI0Fm/PBJupzAcgZR4ZPCRQ0HMBkWz0yZCxeeYSI37uW0mgOSMM8pzNo6uzXrgE02/PFXsXbP+dDzwwg8Hi8OBgm2AyL/WeWJjq7iNP4/PRdXsDZNdA1gGog2KrTABPezMplMUxCAP27Pn7v5emNnIbz0mfBRxr47yEAkWsMANXAxzBZC6AUT0MwDcFIZwLP9PIRgJwwEjCcFwPBLAJoOFIWAEvxbagoAAlATmfQ1NmvAlAgjAyhyq9gA0wiD8jE9JOGYUNai6szqQWfQGNnBw+eXwCSOAQIaWA3DQhAEt9u4sNbUNdpTuRsbSEACUACkDSwmwYEIIlvN/Gd7W2v5517egKQACQASQO7aUAAkvh2E588grlHcLY2EYAEIAFIGthNAwKQxLeb+M72ttfzzj0+AUgAEoCkgd00IAA58WE/mN+Jjw2qtgLatlrwaulx68WwFWM6J8hWRM+P9hi3aAw7+pHe3pBR+Sgbb9DivCG3zaNZv7RKu6xPXrld3ns1f9RP1/mbXm0St4kA5ADE5/kABgyIETyD4bMBI77BC9BI8QkSGT6lwbM4U3z6d9QcZp+5ftH3NfWbPQ/V7y/5+7rqe2x0apepXboGkPdCtv1ux2iUh4uZUDwQZkD5uTxug5cDAAE+lt6fEWQGzgDwYswAKY/0QByfV8rfHQHSqp/F53Bf33fkj7rqOhmZ2qLeFl0DqGWoW3UqewAwUK5HMuCKh4L4NQBF4dFzZAgNG1qprGKja3Eg2+RRtepnZWXIZMDl/CbYvSP/6Hl0r26AZ28bASgagrFxEwBMLC0DjwDDRo5wBlpLgIh/H+oQeSg+fat+iGuQNUim4SA937vyRzm6CjxLGhCACEDsHdQarmXgAAZ7QOxRWZ4pfeW8oahMX57Pz6fx8X24fQd4LrfJc0K8d+SPvHQVgJY0IAARgKyxMiCms4DSvBN5CS0DB4CKuSpKi87wZcAjCtPTBLGlD+NQGa36ofwxD5f3u/JHOboKQEsaEIAIQHm4VHoF2SuaftVqNSgMmz2gVnyFyUDPrgEBiAFkpxe6dTsRlGqiEYAElJo2dD/WhgBEADKR+OGRB1JLSAJQLLJWmyns3G0mADkAySDObRDq/8/2vwAkAO22D0jG/llj77G9BSABSACSBnbTgABE4tMcjt7IPXoJ31wnAegFANliPazdicSxFB6l0T3B74waEIAEoN3c7zManJ65fNEIQCGA8q74vKJ5Wpg4/4m+3DC6FD4N8WwHPVZbT/mbOBGHV1P7hY1puwTSu9XMVgfzzrgu8NaiNU3RvVfzl3GVxqX2WG4PASgAkBk/jD4ZMm11MFEtDbFq4QyXIn+CSFQeCznBgerjv4/gGfJkwKB8AMnyTfGpfJ+f/97Kn+upz8vGpzb679E1gNgL2P5zfB5Q2rhJBmqiMaNkI/ZCqoUDAICPpfM70LOBT0dkcN4+bkqv84A0hKSXKOvlCJ+7BdAejRcCwrZnfBBA9tyjl2HDLPJ2sjeDoRtfp2FcSktpfDvyjv+c3wS7d+Tvy9N3eUItDQhA9PbYBUDOg+HOQn0AocgD4vj2eQlAFsc8NPPCcCwH8nhX/shPV8FnSQMC0AsASkbuvCJu6Fo4gMJDMD/HwvnYZw+UZ+P7/Ow7wKPzgASISB+fvCcAvQAggGScl3JDnlr47L4fYg1nUo/5WrgD3VIeHliRmMY8XN4JTlEd6PnW5B+VqXuCXaQBAYgAFDXQO+/B8NkDemf+yktGfjQNCEACkH5F+qAGjgaIresrAH1QfPKA5KFsbdBHy18A+iCAjiYO1VfA3FoDApAApCGYNLCbBgQgiW838W39dlX+/XtwpwdQtNVCwu1fuOqj7+gjASjYavFXcdf2gv01X6XPRqf2/Q74mJ4FIAHocEMwAUgA2kS008/U9fNybCVu7bwbIyrymFYTT5st4UGk7Qw4T4dWGyMtLxSMhmjpHqXHzvi0Spjuj3WglcSoQ3TNWySuj+tv3mh6u6Adps2mlq6s//R8U/2RzvIp07bSWxjyGOs+PA+3SVE+raZ+qf6cfliFPT13Wf+/tm/U5rq3L8y68oBY/BB8Eh2JdBThcO+v590wYFA+yk4G6TykDJ+5UbOQX31D57zzRtFs5FZOPhwNdbLnx2crM8VDW4zbKKb6pfYiALbSj/kN8dEeAKwP99/X1D/Vl+rD31EeQ9PXH2Vyneye/o7ZBk0A+bfgtt/tTV4am4nK79BOgiQgcbg/XsKn57gQ7LMAMoNZEv+aOCifr1wXGB6MslYmp0FcBhSHc1n4zOFRetTD4oftR7v5OS+kQ55W/8X0Uf+7F4DV49X2xTPr2g+sqgDao5Mg1sKAfmw4UX+jcz3ZAHCf8wwBRQLnuGP6hXDE42vLQOZn7tAQisqKDNjKmKefNqwu1X8pvYVb3afjP/ILAfALy05DtNw/3P5R/RfTC0Cn8+T6BxC9Yc1AIGz77P+ywCeDtnB+60bhKT83hCkASFCAgcMgffn43gIQ4kTXRQMeDJTL5zSo3zP15/RWpwQgnsei4RK35Wv1L18mPo+l+iP+q+2L9LrObWevNukeQPxGtkZqAigw0JTeAQYGnIzPjI2GdFze+Mam8FT+vYSc7zyGmg9rfWcY4DlhlFbnDIDpvGp8R/0Rtw6gPDmN8Hl6C28/G7ePf5al+lv8ZvqVHtCr7evrq+/7g6hLABVzTfQGNsHAMGviGY0Kb3GCh6UZoQLwkIczCzdjNA/M5ZHqgPzv8zkhgGB8DvcM1bpTXfCcyGsGzVT+7+N6meqHuABMeh7Kc/w+1r1Mb+H+2dIzUP1RxvhsltcQvgZAzfQrATTLg+pXa1vd3x82UR90CSA2oKjSureNmDKcp/k2a2cAXX2yTZufXcsCUDCXdFZR5CGpA1CagyvvnbV99Nzvh7AAJAAVk/nzIZjgI/C8Hzxo064AhErZ1QwB8x58X5+3E4PaVm37aQ0IQPKACg/o0wJUeeeGngAkAAlA0sBuGhCA/ig+/ulZb/Nzv83V/8/3vwDUIYBssZ7mv54XswBwvDYTgASg3dxvAeN4wHh3nwlAAYDSdoFxtfB8a0IZXm7lsA4qw6f0WMH71/NuivyDVdrmPfHP6exNoQ68klmLDAWCd4NlbX4CkAOQGS4bZDJ2MvL0nZb++zmgVno2fpSRQEH5A2AMDe5MX77/PoJnyNOvbk7hVH/OW58Fok9roGsA8Vt6+8+Tp8KdwIDJ2xLKhXkczunwmcMBIMDH4kR5GlQiAEVxM2Cmunug+TQZUFN81FNXwWcPDXQNoMgIt26kYrMqhmGFN1EaLwPG6tZMH222dOcdWR5VAKVtEfm41hLIExTXeDgZQkM+8oY0B+ZGAVvbGOcvAFHjw0Nh8DFgvLdhDckex2L6CEDuvKMmgAJYcWeO9VkJFdQXu9l9Xvour2hrDQhABYCWzstxJwTaURfmJcFDSoB47rweP4czQsTNC0EIUXyEjWlXAuiV+FyWPgtQf9WAAEQAssZMHg+GXnYULJ23k8J5GGSQeOK8ndHjGPOfztLhjpzFI6DMwiwvCm8NwcK0FdBxffRZoNlKAwKQA9BWDW35AgA8Cb1lecpb4OhdAwKQAKRJ2A9qoHcgfLp+AtAHxScPSB7Jpw289/IEoAqAbC6Ffw3rvSNVP8HtiBoQgAQgDcEqGjiiQR+tzgJQRXzygORRHM2Yj1hfAegLAYS5JqxPOqIwVedzvAAEIAFIQ7CKBgTB7SEoAFXEpyHY9uKTgauNBaAOAZS2W4yrpafNrxha1c4TMoNOK6GRllZIy9hl7D1qQADqDEAGEF4pnWA07jXLe9Fs/xniJOAE2ynSfQFIw8uKvnuBkQBU6aDCk4BHsel18nRYHMVu/Gg3fWWHvAAkj4d11OtnAagBoD0WIr7jPCETmwAkAPUKHa6XANQRgDDHw+Bb9ICC84QEIMGHjbznzwJQVwBadx4R5n9MWLXzgeQBCUI9gwd1E4A6ApB1Sus8InhIxXGsNNEchtu8FcVBx+sqQPWgAQGoMwC1RAHAsAfUiq8wQaZ3DQhAApB+qq5ooHfj/Yb6CUAV8dkcCk8G99DZ8oDk0fSgw3fWQQDqFEA9AvCdwlNegqlpQAASgDQEq2hAkNwekgJQRXx7eyB7ly/j29741MbygKpv/70BsHf5Mg4B6BMakAckD6gK4U8IUGWcG3QCkAAkAFU0IDhuD0cBqCK+vYdAe5WPn/qL1dbu+A9bnmD1QxwsV0Da1nlFZtTlau97d8sdBJ7twYM2FoAEoMID4r1lAAoAY6IZwYMzitJm2N/H9d/P+J9fW+cVZfjk+BChrp8z+N7aWgDqGEDwMD5ztfOI8oFnvNUjAYf2kqXvdADaD51HBGBxeg438RvgGGi9GYTq81kYCkAdA2gPQ13lARGQ2GCXABSFc3p9/qzx99DeApAANB+C8cmPDjbeI2IRR4DJB6zl0x4RvgdYuZ763A/oBCABaARQHi7FR8PCaJ8FEHtUlkdKf2+XgbJ07QcUW/WFACQAjQCaAHEff+FK80/kBa0BUDFnRWkh4gyhqQx5RN8PGvS9vwpAAtAIoDxcKn+hyl7R9F84vID4O4ZYPAnN4fp8XtDU+l4AEoAmAF1uj/vdAYh+Zq+JCPcFIAEGWlh7FYAEoBFAJho/PPJAaglLABKAWvqIwgQgAagAUCQS3RNYttKAACQACUAVDWxldMp3AroAVBGfDUX2/HVm7/JlJJORqC22awsBSAAaPSDN4WxnaIJY3LYCkAD0NICW9nMthcsYY2M8Y7sIQAKQAFTRwBmB8OlnFoAq4tt7DmaP8qchWN4Vn1c0T+uCrE7FKmfsGRtWOy+FT/nnf0Ht8/+0+FXe/p6YACQAzTwgAwNWMyeouO0US0OsWjgANMufjvcQFPaHwif7QADqGEChtwGv4+3X+DygdICYA0QNMBBuLRwAAtwsvj8vCHnoeg4QCUCdAmgPAwwBYdszBKDRS9yjX765TAFIABqNaxcApb1mOp7jmyHTejYBSAB6GkBpXsh5RSyyWngEOBuu3d0cE+elz989FBOABKCnAQSQjHNUDiC18Nl9m8dyaQWc7waO718BSAAaAeTF8e7vABBPQr+7DOV3LIAJQAKQAFTRgGC2PcwEoIr4bB5jz82o3yh+eUDbG/TRdCMACUAf84COZhyq7/bAFIAEIAGoogEBSADazTg0BNtefDJwtbE8oMrbTwDaxjjSGiFsI+ngJ/hoq8m3gxFzcX6F+x7PLQB9IYBqe7H2EFitzASiLwVQ7+0vAFWMnsW6tweyd/ncFs9+7t0A7HkEoG08zGe1snd8eUAVGO4JoLQ9AcMU2vKQ/3HgvVgekOPmvVTJqJGOr87TqOUPMNjyA84LyxHw5rxd2uf5FPlX/g1zBKA1+aNfovpZ/ZHHuEo7KL+s333cbIu0vFAyGqKle9S+aB+u01R+udobZXA4l2fPUNSP+n+xf4L/4eb/2WRRR6cLyz+1Yfr/cPX/XNuqH/JYexWAOgNQ6lwShv/OguLP3OGWBkbB9+2zz89/HwU6CJ/LmIzHHVJG9bX0bFApf2dEVo9UDqWze1P+7jwiSr+mfvzsKT6l98/LgEH5XH8OT3UM/nmj3ec/K4PrwGHRc3O4r5///tfnR1m1emS4Tv2L+Lj6+vjviLf2KgA58aDhxo6mNx2/td7/2bwY8yzKzs8AKHeLp7r93h6331joJorIAKKzd3z+Oe/r49/PT34bUp3WGCjaD1dvwLgfGUCYP5VvaZv1C3bW8zPzZ9SD6xeW744jqbUt8rNrK06qf+CVWbqwfu6ZWs9veXB49DyoZ4rnXgBLdV9TP+S/9ioANQAUGfHahn0lXobB5PpOkHNQ+hmOTKU3O5dXM4A1+deEaflHgmYDTnGSwbhnCOoZlRPmHwEoMJxUtoOFr7OHrU8Tlk95RuGWh/+rtT/ipWfHi42e5a/9k54ntVd+YUXPW9SBys5ps67YA0T8FB71bXqOUp+cZumzABQIyBrNRPJxADljq3UejNeEHu0mrxlA9AbzZSBvf9++RwbIAEI4txuHc55ROUjPBuCNKEqHfH3cXOfJq4zCU34DIMPyAwDx86Fsvtban+Pkug0vkgEEf+0f5G/lWxumtneQQZyoHfH8tedbUz/kv/YqAHUEIOu0GlTQoUlUgwufBTHNlyAOGxXu4bqUfyRMpIVAC0AUBponpxGO+kXrTaJyovx9faN0vn5sQCm9AwzCc1tOk9CWD5eXgVWGp/IrQyjUI8UJvD6E89U/D5fP8fDZx8d9vgI8l1vdM6nlk+43nm+pflyPNZ8FoM4ABCOchl+TlwODgYFbB4f3MESL3HwfZnHoLVkTZiprSDsrn4wN9cn1/31cL9fHrwNA8WxUfuvZIeZW/XId+Re6Eh4pnIcRVi8C6CzcDNHi0/NZnGyk0zATQLOwlIdv49HD4f82MqR3eS+1wdLzF+WvyZvaH/VvPd9S/ZDH2qsA1BmA1nbcN8aDuBlw3/iceqZp3kwAEoBmk6h7GYgANBnmXn3w6XIFIAFIAKpo4NPGeMbyBKCK+Gwc7Mf2ZxSInvl8Xskn+1wAEoC68YA+KXyV1QdYBSABSACqaECQ2h5SAlBFfBqCvV98n5hktnUqGjq/v++2grEAJAB9zAMSgI4Dhq2A4/MVgAQgAaiiAW8s+v5+gApAFfHtMQTLS+ivj+tvXiU7nbtTLqlPy+GxynnFalde2AcvhFcjc7gZWZG/W5Yfpbe8OI8iPdUPaW8XXhFcPhva3a6oIw+pkAfC7q5+PASb4pZl1Opnz/58+eWzC1LPQUoA6g1AgzFnIzHDKXcop/u0dcJ/T4ZL4d4g1oTPYEIQ4fJg4AwIDh9hFmxFQBl568Z03MgInqHMvB8rAyQqL8V39bP6IC5vM/H1ib63yrf4S+1ncfS3vg0EoIpgRiHC09j8entcaF8ShA5DykY17eyGyP0O71zvyaARD9elcMTDNQECMAj2gqGeFj/aLc31w7MAPlGalB8BhfPkvMb6uRMEDIC/10v2Ih2IOa8xfdobNrVXq3xL82z7oRxdYygJQA0A8Zv9EwJiY4dhw2gTgHgjZQHEcoiRjWTY7OiMcDKiODwb+RCGMggI7OFw3SzfMG3Ko/RgFgEU1DnlT4BGf6AOyDPVj8pEvDX1szhod07nPy+1r4+v7zF8rF0EoCMByL3tl4QN4/TDEKTz4fjO4GUoWrrJwOcAizwMlGVX5A9Y5HulV9cCwHoP6N9wSkAJ5qX6WX1a5fOz8PPU2tfH1/c5iASgAwHIBMweyBpBLxkUh2cDnSZV8R3n+eTv03AlKr9VvwhAPj7Xx+eP9AzIlN55aAhPebkjbn15voxW+T6ufX82fpTHme8JQAcDEIxw+hVoOs8nDCPjXAo3Q8iTwhiClef5jAaHoRmuNGQKyxjCW2EwwiWDHqGIsun5LA8DDADE9YXXtVSHVvlhWlc+nkPXubcTtYkA1BGAog7q6V4eAkXDmslr6qm+qss6COzZTgKQALT6Z+PsHTkApYnx8t6eglbZ/UOH+0gAEoBWA8iEk4YoGP6kq+DDBqXPzwFQABKAngKQDOw5A1N7tdtLABKABKCKBgSPNjze0T4CUEV8NtTgX1Pe0djKY3tBq42P1cYC0MkB5BcaftqAuXz8zI2fzD9dF5X3eXgJQALQAwsN32WAfi1OK18B6PNG3+qPT4cJQAKQAFTRwKeN8YzlCUAV8e0xBzQNQfi/e5Y/c6Ne/HM4z1Uhj2ml9HzrRNqOwD+lD6t5kZaHQOyhwEDSPUqP8rlOU/nTSm2kXy6/fl4Q8tD1OzwnAahDAJnxAgLJqGm5/2jkgAYtBARAAAQzUp8+GT9vnaAd5kiPsi29B1CGTwlFD4PWEGxN+fz8ubw5RH2Z+n5MIAlADQAVb3F6429z34ysPHwsAcDtgPdAyXujMhCWdotzXBgsA2YNgFpwQZ61OC+V754fZeh6TOD4fhOAKgDyDfWJ7yEAnAEmAJEHw/VimOA+5xkC6gkPiPNC/tG1CiB3+Jel5TpH+UfQisrUvWMCSQDqHUDOaJsAcnGTgRPAIgCxRxUCIAAUD/Eiw38GQIvlU/2jsnTvmOBBvwlAnQPIjJkPvGoCaBjCMSBSeswXufA8v3IvfgXj8jKwyvBUvjsIHmLClaGCe3YF4FA/Xz7CeQ6K68N56fOxwYP+E4A6BFAxx+SGWy0AZSPnX9BKeKTw5CUN5/0YmMjDmYUbaCw+TYJbnAwhnBlUnr+T68C/YpUAHaFmc2qufACo9fyWv/6+pw0EoI4EDQNkD0DG9j3Gpr6c96UAJADJo+hIA2eDlADUkfjkAc3fkGczyLM9rwDUEYDOJj49r4ArAAlAGoJJA7tpQACS+HYTnzwgeUACkAAkAEkDu2lAAJL4dhOfPCB5QAKQACQASQO7aUAACsQ3bhEYdsBj64C9sfFT+bRadzoqIqW7XR/X37xK+HbBquRht7qtOm6EL+Y/7pZHvlZO+2gMeRnyMnrWgADkAJThExs14MNA4n1PAJetZE57mBIcpiM2FsPdXi0TTpH/EM7QWdqa0bP4VDfBsWsATV7GtO9ou3vZkzFwMGDYSKLd5HxcRALMsG8KYGBoLYYv7WYfPaCf0WXmPLmu+izjPoIGugZQDQRbNSxgUduLFRk7p+HwlwDkNobacxb5C0AjeLfSgPL9LLgFIBqCwdhr4JMH9FlxCgbf394CEAHIBJ88l8p5NxGg0lzPMOz6swcUzAEV+csDkgfk9Hp0SAtAQYdmCE3zTuwR5TmfKYz/p9ZfAWRiauYvAAlAgV6PDCEB6Ms69MhiVN2/f8jl+1gAEoDkVUgDu2lAAJL4dhOffxvquzygbsRo8zA89yJxnk+c6vPv73N5QPKAunnpCDjfDxzfxwKQACQASQO7aUAA2kl8xb+nuZfbP7DeiH/i928OfT+ft/CNfS4A7QAgrPWpbvkY1vsIQILMN0KHn0kA2gNAwaZT7hR9FnjOogEBKABQWtE8nAVku+/517hxeDSG03lA40rl9nk90Z4yCK5Yhe3+K6rFmZefV2XXvCnkq6ug1qMGBCAHoAyfF88DwtCJDglLQBlAUsBlBJgBZIIYRMLpcM+uaW/YkB9gxIDkuPos6PSuga4BtN3ZP7SXawTBG84DGj2g9nk9LQ8IgokABOCwtxPFQx66CkC9a6BrAH36zR4ZOHcgbzbFfU7Dn8fw6IyfFXNANbDIAxJUoK1vuApANAQDQGrgizyX4kTEjT0gE1wC0Oi13R/3YJ7oG4SpZzgHaAUgApCJPnkewZyMhUWAeuW8nghk3uAiDyjDbj5f5NPq+zmM9xv6WQByALJOzRCa5onYI8IannF+ajiMzNIBUDxHEw7bKkMwpB/zhqdDXo6vW4pL4d8gSj3DeQAqAAUA6tUAsudU/kIHIDL0eq2/6nUesKztawHoSACyCW36id86OYLS2s5XPAFhbw0IQAcCkIllPgQrPaK9BaXyBbVnNCAAHQxAz3Su4goGvWtAABKAdjuKoXfjUP22B7gAJAAJQNLAbhoQgBbEF/2MvvWbcfw5nn7i37pM5b/9215tPG9jAUgA2u3tJ4OcG+TZ2kQA6hBAZxOhnve8IBKAAgDN9lvRUGgcHmGVMm3bSMO12/Vx/cUZPTgXqPypvMy/3FpR/MzuVjij7NsF+Vo5Zd4y5vMa8xH7XgByAEpwIMPnOSAAgLdmJGDw/4a/3x+2KjlDxuDwLwEJK5UtPj6bYFI8AhxElPKleth9lM/QieIhD10Fo9410DWAZnuiRq9j2qf1vjjmiZhnUXoUBYCCPVzFbng6egNgADQYWiwKzp/vIxa/suAAAAeFSURBVD3fQ14MsFp6TqfPAlGvGugaQDWj3aoxo13qbOD8GXVgKHA4AIJwPEsuwwH0SQ9IABJQoL+jXwUgGoJFAEogwRDrjx6Qh5GJh6HFYgLA+B7SC0ACEOviyJ8FIAbQcKDY6K2kzZ/3B/49DgCAcOt4nsNhmAAgnMbvXMd35M9CQnq+h7wEIAGIdXHkzwIQAcg6shgimedD8zopPM0T0RCKhk9LAErpAbU0n/X7uF6uj194WOOh9pS/xRsmowUggefIsInqLgA5AEWNpHsyfGlgGw0IQAKQVkJLA7tpQACS+HYTn7yKbbyKI7WrAFQBkE0C82TzkTpVdZVhH0UDApAAJA+oooGjGPGR6ykAVcQnD0hexJEN+yh1F4C+HEC8NGCNKNP6I2x5cXvR1qRXHIH7GQ0IQAJQOASLFkI+IyzFFYjWaEAAEoAEoIoG1hiQ4vwNtAJQRXx7zAGl4dLCeUJYDT2dAlCeJ2QGkY8CodXUtFp7Fu7CYFA1D2hefj5+BOl0/ZtBnq39BKDeANQ4TwjGz8sDEigIIgk+NHfj54B8uP8OA6gBqHYf6XQVgJ7RgADUANDkZZA3gQnat19vjwvtO4OhM3Si3frFeURL5xlF4cEOfxMQyvdiSvfpFEgfru8C0DMaEIAaAGJP45lGfTUueysAQAEgAhTKQLjtkA8BRWmKjbYFQMtD2CxvlI9y+JohNECZvC2Oo88C0RoNCEBHAlDgrRQeUBCeYDHutp+f+FgTSQtASAP4Ybc+7usq+KzVgAB0JAC584qsk9MczgiYfP40PLfkUZmn05gjqgllDYAs7dp4tXJ0/9ywEoAOBCAz1vEQMwyhCC4pPHlBw/DIwmgIltNnSBXzW+68oSLMymmFu/IFlHMD5dn+F4A6AtCznaf4Mvaja0AAEoDChYhHF7bqfww4C0ACkABU0YAgtj3EBKCK+GxyFZO5EuL2QlQbn7ONBSABSB5QRQOC4vZQFIAq4pMHtL34ZOBqYwFIAJIHVNGAALk9IAWgivi+2QOyxYua39reuASw5TYWgAQgeUAVDQggywD5axsJQBXx7eEBYW/V7WJ7trADv9woijjTauXyPCDU266IA2+H7yEsXWlD6Tx/nffzVyNT+jrIBKAOAWRQwP9/T9AYtjsADgCKCZvDx++0/yvvgC8h1hqCpfwISDKeuvGobf7eNgJQA0CFlzB6JPBM3n01Tybv0wJ8TOBLu905fAQQ7c/y4RZnEUA670fD0opdvBu6AtCHGnpNx8HDqQLIbSy1PH2aNR5MC0CWZ8oDwJU3JBhtaCMC0IaNuwY6HMfDJAGGzvgJDxxzpxy+A0CoE+qD3fC4r+vfhx5qw9yGAlDnADJvBQAAEHgOKIXTkGsNgFIcStMyhjX5tdIrTLBqaUAA6hBAxdyTGwItnQe0BhgA2VjOUMbsPk1mt0SkMEHmVQ0IQB0CiOeAXu1YpRMUjqABAUgA0iRrRxo4AjTeWUcBqCPxYQgkD0jeyzuNvOe8BKCOANSzUFQ3QXELDQhAApCGYNLAbhoQgCS+3cS3xRtVeR7LUxOAAgBhLob/n9azwvb/hZTX7jybl+Ify6jUX+v7SwDaAEBYq7PXZPLSVoutDWTv8rd+PuW/HjBLbSUABQBaarSl8GjLxFKad4bvDYC9y39nWyqv98EmaksByAEorSSubMTE0Kx1Xo81cgtAlr8Nx7gcPzwzAx5XKbud6ajDFO6O7kDd+UqrqVvlI2/23NK/d3bbNsZ/+TyUgfrzM3H9/FaSVv6t+kHARfu4uiGOrtuC413tKwA5AKFhkzGR4dp9GOj9Pp2vw/GqBkgQGeMMhpNhVebHBpqMjYyMy0Nd/bXlgbTKx/Nx+R5AGT5TfX3Z9r1W/pr8W/VD3gBa9D2qj+71C6OuAVS8RfmNvsnn+cmCLHQT8RoDSvFoB7sXfzIwAkp0Xg+n8QDIBlrWlePb5xoALKxV/prna+WNetTirMm/XT87KbKEX8vbRH10FYAO91NvMoSKB9TyEEzsLaOI8mUDyWl5CHZ/+F/jUh6AsKuj5VUDgIW1yl8CRBTOdcfnWvlR+hCwwTNZ3mHbpHYooYR66NoveNA33XpAqOBe18hQ1xiQ1fdVACF/zKmkvIJDyNAmiO89tRoALF30XD6/GmBRHtcPaflaKx/pa/kv12/uAXG5+tw/cHwfCUAvzAG1DMga+HUA5cPokT9+zvceEHdiBJR0j4Z5S/E53OABoI0eB+WV8qY5LU6Lz63yV+Vf8YAsf06P8nQ9HnjQZwIQAQhv6Nnc02AQCAcgrBH9ECLdW5oDahhYnuTFEOz3cb1cH78DAFB+UT+CAzp1Fo/Ki4CFdFPdUf7tcbFncWVkCCHO/H+MtcofoZaGTvP8F+s3nJtdtAE9Hz+LPvcPJgGIACTB9i9Y9dF39ZEAJAAd7gcCQeh7ICQACUACkDSwmwYEIIlvN/HJk/keT+bVvhSABCABSBrYTQMCkMS3m/hefWsq3fd4TgKQACQASQO7aUAAkvh2E588me/xZF7tSwFIABKApIHdNCAASXy7ie/Vt6bSfY/n9H9NPDLrW5vvuQAAAABJRU5ErkJggg==;" vertex="1" parent="1">
          <mxGeometry x="800" y="460" width="288" height="308" as="geometry" />
        </mxCell>
        <mxCell id="s-Bh8lu4hKgLgVafhUbF-78" value="Hexagonal Architecture with Verticals (Starting as a Monolith) - Do not cross boundaries" style="shape=note;strokeWidth=2;fontSize=14;size=20;whiteSpace=wrap;html=1;fillColor=#fff2cc;strokeColor=#d6b656;fontColor=#666600;" vertex="1" parent="1">
          <mxGeometry x="1150" y="240" width="350" height="220" as="geometry" />
        </mxCell>
      </root>
    </mxGraphModel>
  </diagram>
</mxfile>
